<?xml version="1.0" encoding="utf-8" standalone="no"?>
<!DOCTYPE svg PUBLIC "-//W3C//DTD SVG 1.1//EN"
  "http://www.w3.org/Graphics/SVG/1.1/DTD/svg11.dtd">
<svg xmlns:xlink="http://www.w3.org/1999/xlink" width="360pt" height="360pt" viewBox="0 0 360 360" xmlns="http://www.w3.org/2000/svg" version="1.1">
 <metadata>
  <rdf:RDF xmlns:dc="http://purl.org/dc/elements/1.1/" xmlns:cc="http://creativecommons.org/ns#" xmlns:rdf="http://www.w3.org/1999/02/22-rdf-syntax-ns#">
   <cc:Work>
    <dc:type rdf:resource="http://purl.org/dc/dcmitype/StillImage"/>
    <dc:date>2024-04-23T17:08:46.873017</dc:date>
    <dc:format>image/svg+xml</dc:format>
    <dc:creator>
     <cc:Agent>
      <dc:title>Matplotlib v3.7.1, https://matplotlib.org/</dc:title>
     </cc:Agent>
    </dc:creator>
   </cc:Work>
  </rdf:RDF>
 </metadata>
 <defs>
  <style type="text/css">*{stroke-linejoin: round; stroke-linecap: butt}</style>
 </defs>
 <g id="figure_1">
  <g id="patch_1">
   <path d="M 0 360 
L 360 360 
L 360 0 
L 0 0 
z
" style="fill: #ffffff"/>
  </g>
  <g id="axes_1">
   <g id="patch_2">
    <path d="M 45 320.4 
L 324 320.4 
L 324 43.2 
L 45 43.2 
z
" style="fill: #ffffff"/>
   </g>
   <g id="Quiver_1">
    <path d="M 58.95 305.982 
L 64.261333 305.982 
L 63.703333 304.866 
L 69.283333 306.54 
L 63.703333 308.214 
L 64.261333 307.098 
L 58.95 307.098 
L 58.95 305.982 
" clip-path="url(#p8e5a6d07bd)" style="fill: #4169e1"/>
    <path d="M 76.885714 305.982 
L 82.197048 305.982 
L 81.639048 304.866 
L 87.219048 306.54 
L 81.639048 308.214 
L 82.197048 307.098 
L 76.885714 307.098 
L 76.885714 305.982 
" clip-path="url(#p8e5a6d07bd)" style="fill: #4169e1"/>
    <path d="M 94.821429 305.982 
L 100.132762 305.982 
L 99.574762 304.866 
L 105.154762 306.54 
L 99.574762 308.214 
L 100.132762 307.098 
L 94.821429 307.098 
L 94.821429 305.982 
" clip-path="url(#p8e5a6d07bd)" style="fill: #4169e1"/>
    <path d="M 112.757143 305.982 
L 118.068476 305.982 
L 117.510476 304.866 
L 123.090476 306.54 
L 117.510476 308.214 
L 118.068476 307.098 
L 112.757143 307.098 
L 112.757143 305.982 
" clip-path="url(#p8e5a6d07bd)" style="fill: #4169e1"/>
    <path d="M 130.692857 305.982 
L 136.00419 305.982 
L 135.44619 304.866 
L 141.02619 306.54 
L 135.44619 308.214 
L 136.00419 307.098 
L 130.692857 307.098 
L 130.692857 305.982 
" clip-path="url(#p8e5a6d07bd)" style="fill: #4169e1"/>
    <path d="M 148.628571 305.982 
L 153.939905 305.982 
L 153.381905 304.866 
L 158.961905 306.54 
L 153.381905 308.214 
L 153.939905 307.098 
L 148.628571 307.098 
L 148.628571 305.982 
" clip-path="url(#p8e5a6d07bd)" style="fill: #4169e1"/>
    <path d="M 166.564286 305.982 
L 171.875619 305.982 
L 171.317619 304.866 
L 176.897619 306.54 
L 171.317619 308.214 
L 171.875619 307.098 
L 166.564286 307.098 
L 166.564286 305.982 
" clip-path="url(#p8e5a6d07bd)" style="fill: #4169e1"/>
    <path d="M 184.5 305.982 
L 189.811333 305.982 
L 189.253333 304.866 
L 194.833333 306.54 
L 189.253333 308.214 
L 189.811333 307.098 
L 184.5 307.098 
L 184.5 305.982 
" clip-path="url(#p8e5a6d07bd)" style="fill: #4169e1"/>
    <path d="M 202.435714 305.982 
L 207.747048 305.982 
L 207.189048 304.866 
L 212.769048 306.54 
L 207.189048 308.214 
L 207.747048 307.098 
L 202.435714 307.098 
L 202.435714 305.982 
" clip-path="url(#p8e5a6d07bd)" style="fill: #4169e1"/>
    <path d="M 220.371429 305.982 
L 225.682762 305.982 
L 225.124762 304.866 
L 230.704762 306.54 
L 225.124762 308.214 
L 225.682762 307.098 
L 220.371429 307.098 
L 220.371429 305.982 
" clip-path="url(#p8e5a6d07bd)" style="fill: #4169e1"/>
    <path d="M 238.307143 305.982 
L 243.618476 305.982 
L 243.060476 304.866 
L 248.640476 306.54 
L 243.060476 308.214 
L 243.618476 307.098 
L 238.307143 307.098 
L 238.307143 305.982 
" clip-path="url(#p8e5a6d07bd)" style="fill: #4169e1"/>
    <path d="M 256.242857 305.982 
L 261.55419 305.982 
L 260.99619 304.866 
L 266.57619 306.54 
L 260.99619 308.214 
L 261.55419 307.098 
L 256.242857 307.098 
L 256.242857 305.982 
" clip-path="url(#p8e5a6d07bd)" style="fill: #4169e1"/>
    <path d="M 274.178571 305.982 
L 279.489905 305.982 
L 278.931905 304.866 
L 284.511905 306.54 
L 278.931905 308.214 
L 279.489905 307.098 
L 274.178571 307.098 
L 274.178571 305.982 
" clip-path="url(#p8e5a6d07bd)" style="fill: #4169e1"/>
    <path d="M 292.114286 305.982 
L 297.425619 305.982 
L 296.867619 304.866 
L 302.447619 306.54 
L 296.867619 308.214 
L 297.425619 307.098 
L 292.114286 307.098 
L 292.114286 305.982 
" clip-path="url(#p8e5a6d07bd)" style="fill: #4169e1"/>
    <path d="M 310.05 305.982 
L 315.361333 305.982 
L 314.803333 304.866 
L 320.383333 306.54 
L 314.803333 308.214 
L 315.361333 307.098 
L 310.05 307.098 
L 310.05 305.982 
" clip-path="url(#p8e5a6d07bd)" style="fill: #4169e1"/>
    <path d="M 58.95 288.162 
L 64.261333 288.162 
L 63.703333 287.046 
L 69.283333 288.72 
L 63.703333 290.394 
L 64.261333 289.278 
L 58.95 289.278 
L 58.95 288.162 
" clip-path="url(#p8e5a6d07bd)" style="fill: #4169e1"/>
    <path d="M 76.885714 288.162 
L 82.197048 288.162 
L 81.639048 287.046 
L 87.219048 288.72 
L 81.639048 290.394 
L 82.197048 289.278 
L 76.885714 289.278 
L 76.885714 288.162 
" clip-path="url(#p8e5a6d07bd)" style="fill: #4169e1"/>
    <path d="M 94.821429 288.162 
L 100.132762 288.162 
L 99.574762 287.046 
L 105.154762 288.72 
L 99.574762 290.394 
L 100.132762 289.278 
L 94.821429 289.278 
L 94.821429 288.162 
" clip-path="url(#p8e5a6d07bd)" style="fill: #4169e1"/>
    <path d="M 112.757143 288.162 
L 118.068476 288.162 
L 117.510476 287.046 
L 123.090476 288.72 
L 117.510476 290.394 
L 118.068476 289.278 
L 112.757143 289.278 
L 112.757143 288.162 
" clip-path="url(#p8e5a6d07bd)" style="fill: #4169e1"/>
    <path d="M 130.692857 288.162 
L 136.00419 288.162 
L 135.44619 287.046 
L 141.02619 288.72 
L 135.44619 290.394 
L 136.00419 289.278 
L 130.692857 289.278 
L 130.692857 288.162 
" clip-path="url(#p8e5a6d07bd)" style="fill: #4169e1"/>
    <path d="M 148.628571 288.162 
L 153.939905 288.162 
L 153.381905 287.046 
L 158.961905 288.72 
L 153.381905 290.394 
L 153.939905 289.278 
L 148.628571 289.278 
L 148.628571 288.162 
" clip-path="url(#p8e5a6d07bd)" style="fill: #4169e1"/>
    <path d="M 166.564286 288.162 
L 171.875619 288.162 
L 171.317619 287.046 
L 176.897619 288.72 
L 171.317619 290.394 
L 171.875619 289.278 
L 166.564286 289.278 
L 166.564286 288.162 
" clip-path="url(#p8e5a6d07bd)" style="fill: #4169e1"/>
    <path d="M 184.5 288.162 
L 189.811333 288.162 
L 189.253333 287.046 
L 194.833333 288.72 
L 189.253333 290.394 
L 189.811333 289.278 
L 184.5 289.278 
L 184.5 288.162 
" clip-path="url(#p8e5a6d07bd)" style="fill: #4169e1"/>
    <path d="M 202.435714 288.162 
L 207.747048 288.162 
L 207.189048 287.046 
L 212.769048 288.72 
L 207.189048 290.394 
L 207.747048 289.278 
L 202.435714 289.278 
L 202.435714 288.162 
" clip-path="url(#p8e5a6d07bd)" style="fill: #4169e1"/>
    <path d="M 220.371429 288.162 
L 225.682762 288.162 
L 225.124762 287.046 
L 230.704762 288.72 
L 225.124762 290.394 
L 225.682762 289.278 
L 220.371429 289.278 
L 220.371429 288.162 
" clip-path="url(#p8e5a6d07bd)" style="fill: #4169e1"/>
    <path d="M 238.307143 288.162 
L 243.618476 288.162 
L 243.060476 287.046 
L 248.640476 288.72 
L 243.060476 290.394 
L 243.618476 289.278 
L 238.307143 289.278 
L 238.307143 288.162 
" clip-path="url(#p8e5a6d07bd)" style="fill: #4169e1"/>
    <path d="M 256.242857 288.162 
L 261.55419 288.162 
L 260.99619 287.046 
L 266.57619 288.72 
L 260.99619 290.394 
L 261.55419 289.278 
L 256.242857 289.278 
L 256.242857 288.162 
" clip-path="url(#p8e5a6d07bd)" style="fill: #4169e1"/>
    <path d="M 274.178571 288.162 
L 279.489905 288.162 
L 278.931905 287.046 
L 284.511905 288.72 
L 278.931905 290.394 
L 279.489905 289.278 
L 274.178571 289.278 
L 274.178571 288.162 
" clip-path="url(#p8e5a6d07bd)" style="fill: #4169e1"/>
    <path d="M 292.114286 288.162 
L 297.425619 288.162 
L 296.867619 287.046 
L 302.447619 288.72 
L 296.867619 290.394 
L 297.425619 289.278 
L 292.114286 289.278 
L 292.114286 288.162 
" clip-path="url(#p8e5a6d07bd)" style="fill: #4169e1"/>
    <path d="M 310.05 288.162 
L 315.361333 288.162 
L 314.803333 287.046 
L 320.383333 288.72 
L 314.803333 290.394 
L 315.361333 289.278 
L 310.05 289.278 
L 310.05 288.162 
" clip-path="url(#p8e5a6d07bd)" style="fill: #4169e1"/>
    <path d="M 58.95 270.342 
L 64.261333 270.342 
L 63.703333 269.226 
L 69.283333 270.9 
L 63.703333 272.574 
L 64.261333 271.458 
L 58.95 271.458 
L 58.95 270.342 
" clip-path="url(#p8e5a6d07bd)" style="fill: #4169e1"/>
    <path d="M 76.885714 270.342 
L 82.197048 270.342 
L 81.639048 269.226 
L 87.219048 270.9 
L 81.639048 272.574 
L 82.197048 271.458 
L 76.885714 271.458 
L 76.885714 270.342 
" clip-path="url(#p8e5a6d07bd)" style="fill: #4169e1"/>
    <path d="M 94.821429 270.342 
L 100.132762 270.342 
L 99.574762 269.226 
L 105.154762 270.9 
L 99.574762 272.574 
L 100.132762 271.458 
L 94.821429 271.458 
L 94.821429 270.342 
" clip-path="url(#p8e5a6d07bd)" style="fill: #4169e1"/>
    <path d="M 112.757143 270.342 
L 118.068476 270.342 
L 117.510476 269.226 
L 123.090476 270.9 
L 117.510476 272.574 
L 118.068476 271.458 
L 112.757143 271.458 
L 112.757143 270.342 
" clip-path="url(#p8e5a6d07bd)" style="fill: #4169e1"/>
    <path d="M 130.692857 270.342 
L 136.00419 270.342 
L 135.44619 269.226 
L 141.02619 270.9 
L 135.44619 272.574 
L 136.00419 271.458 
L 130.692857 271.458 
L 130.692857 270.342 
" clip-path="url(#p8e5a6d07bd)" style="fill: #4169e1"/>
    <path d="M 148.628571 270.342 
L 153.939905 270.342 
L 153.381905 269.226 
L 158.961905 270.9 
L 153.381905 272.574 
L 153.939905 271.458 
L 148.628571 271.458 
L 148.628571 270.342 
" clip-path="url(#p8e5a6d07bd)" style="fill: #4169e1"/>
    <path d="M 166.564286 270.342 
L 171.875619 270.342 
L 171.317619 269.226 
L 176.897619 270.9 
L 171.317619 272.574 
L 171.875619 271.458 
L 166.564286 271.458 
L 166.564286 270.342 
" clip-path="url(#p8e5a6d07bd)" style="fill: #4169e1"/>
    <path d="M 184.5 270.342 
L 189.811333 270.342 
L 189.253333 269.226 
L 194.833333 270.9 
L 189.253333 272.574 
L 189.811333 271.458 
L 184.5 271.458 
L 184.5 270.342 
" clip-path="url(#p8e5a6d07bd)" style="fill: #4169e1"/>
    <path d="M 202.435714 270.342 
L 207.747048 270.342 
L 207.189048 269.226 
L 212.769048 270.9 
L 207.189048 272.574 
L 207.747048 271.458 
L 202.435714 271.458 
L 202.435714 270.342 
" clip-path="url(#p8e5a6d07bd)" style="fill: #4169e1"/>
    <path d="M 220.371429 270.342 
L 225.682762 270.342 
L 225.124762 269.226 
L 230.704762 270.9 
L 225.124762 272.574 
L 225.682762 271.458 
L 220.371429 271.458 
L 220.371429 270.342 
" clip-path="url(#p8e5a6d07bd)" style="fill: #4169e1"/>
    <path d="M 238.307143 270.342 
L 243.618476 270.342 
L 243.060476 269.226 
L 248.640476 270.9 
L 243.060476 272.574 
L 243.618476 271.458 
L 238.307143 271.458 
L 238.307143 270.342 
" clip-path="url(#p8e5a6d07bd)" style="fill: #4169e1"/>
    <path d="M 256.242857 270.342 
L 261.55419 270.342 
L 260.99619 269.226 
L 266.57619 270.9 
L 260.99619 272.574 
L 261.55419 271.458 
L 256.242857 271.458 
L 256.242857 270.342 
" clip-path="url(#p8e5a6d07bd)" style="fill: #4169e1"/>
    <path d="M 274.178571 270.342 
L 279.489905 270.342 
L 278.931905 269.226 
L 284.511905 270.9 
L 278.931905 272.574 
L 279.489905 271.458 
L 274.178571 271.458 
L 274.178571 270.342 
" clip-path="url(#p8e5a6d07bd)" style="fill: #4169e1"/>
    <path d="M 292.114286 270.342 
L 297.425619 270.342 
L 296.867619 269.226 
L 302.447619 270.9 
L 296.867619 272.574 
L 297.425619 271.458 
L 292.114286 271.458 
L 292.114286 270.342 
" clip-path="url(#p8e5a6d07bd)" style="fill: #4169e1"/>
    <path d="M 310.05 270.342 
L 315.361333 270.342 
L 314.803333 269.226 
L 320.383333 270.9 
L 314.803333 272.574 
L 315.361333 271.458 
L 310.05 271.458 
L 310.05 270.342 
" clip-path="url(#p8e5a6d07bd)" style="fill: #4169e1"/>
    <path d="M 58.95 252.522 
L 64.261333 252.522 
L 63.703333 251.406 
L 69.283333 253.08 
L 63.703333 254.754 
L 64.261333 253.638 
L 58.95 253.638 
L 58.95 252.522 
" clip-path="url(#p8e5a6d07bd)" style="fill: #4169e1"/>
    <path d="M 76.885714 252.522 
L 82.197048 252.522 
L 81.639048 251.406 
L 87.219048 253.08 
L 81.639048 254.754 
L 82.197048 253.638 
L 76.885714 253.638 
L 76.885714 252.522 
" clip-path="url(#p8e5a6d07bd)" style="fill: #4169e1"/>
    <path d="M 94.821429 252.522 
L 100.132762 252.522 
L 99.574762 251.406 
L 105.154762 253.08 
L 99.574762 254.754 
L 100.132762 253.638 
L 94.821429 253.638 
L 94.821429 252.522 
" clip-path="url(#p8e5a6d07bd)" style="fill: #4169e1"/>
    <path d="M 112.757143 252.522 
L 118.068476 252.522 
L 117.510476 251.406 
L 123.090476 253.08 
L 117.510476 254.754 
L 118.068476 253.638 
L 112.757143 253.638 
L 112.757143 252.522 
" clip-path="url(#p8e5a6d07bd)" style="fill: #4169e1"/>
    <path d="M 130.692857 252.522 
L 136.00419 252.522 
L 135.44619 251.406 
L 141.02619 253.08 
L 135.44619 254.754 
L 136.00419 253.638 
L 130.692857 253.638 
L 130.692857 252.522 
" clip-path="url(#p8e5a6d07bd)" style="fill: #4169e1"/>
    <path d="M 148.628571 252.522 
L 153.939905 252.522 
L 153.381905 251.406 
L 158.961905 253.08 
L 153.381905 254.754 
L 153.939905 253.638 
L 148.628571 253.638 
L 148.628571 252.522 
" clip-path="url(#p8e5a6d07bd)" style="fill: #4169e1"/>
    <path d="M 166.564286 252.522 
L 171.875619 252.522 
L 171.317619 251.406 
L 176.897619 253.08 
L 171.317619 254.754 
L 171.875619 253.638 
L 166.564286 253.638 
L 166.564286 252.522 
" clip-path="url(#p8e5a6d07bd)" style="fill: #4169e1"/>
    <path d="M 184.5 252.522 
L 189.811333 252.522 
L 189.253333 251.406 
L 194.833333 253.08 
L 189.253333 254.754 
L 189.811333 253.638 
L 184.5 253.638 
L 184.5 252.522 
" clip-path="url(#p8e5a6d07bd)" style="fill: #4169e1"/>
    <path d="M 202.435714 252.522 
L 207.747048 252.522 
L 207.189048 251.406 
L 212.769048 253.08 
L 207.189048 254.754 
L 207.747048 253.638 
L 202.435714 253.638 
L 202.435714 252.522 
" clip-path="url(#p8e5a6d07bd)" style="fill: #4169e1"/>
    <path d="M 220.371429 252.522 
L 225.682762 252.522 
L 225.124762 251.406 
L 230.704762 253.08 
L 225.124762 254.754 
L 225.682762 253.638 
L 220.371429 253.638 
L 220.371429 252.522 
" clip-path="url(#p8e5a6d07bd)" style="fill: #4169e1"/>
    <path d="M 238.307143 252.522 
L 243.618476 252.522 
L 243.060476 251.406 
L 248.640476 253.08 
L 243.060476 254.754 
L 243.618476 253.638 
L 238.307143 253.638 
L 238.307143 252.522 
" clip-path="url(#p8e5a6d07bd)" style="fill: #4169e1"/>
    <path d="M 256.242857 252.522 
L 261.55419 252.522 
L 260.99619 251.406 
L 266.57619 253.08 
L 260.99619 254.754 
L 261.55419 253.638 
L 256.242857 253.638 
L 256.242857 252.522 
" clip-path="url(#p8e5a6d07bd)" style="fill: #4169e1"/>
    <path d="M 274.178571 252.522 
L 279.489905 252.522 
L 278.931905 251.406 
L 284.511905 253.08 
L 278.931905 254.754 
L 279.489905 253.638 
L 274.178571 253.638 
L 274.178571 252.522 
" clip-path="url(#p8e5a6d07bd)" style="fill: #4169e1"/>
    <path d="M 292.114286 252.522 
L 297.425619 252.522 
L 296.867619 251.406 
L 302.447619 253.08 
L 296.867619 254.754 
L 297.425619 253.638 
L 292.114286 253.638 
L 292.114286 252.522 
" clip-path="url(#p8e5a6d07bd)" style="fill: #4169e1"/>
    <path d="M 310.05 252.522 
L 315.361333 252.522 
L 314.803333 251.406 
L 320.383333 253.08 
L 314.803333 254.754 
L 315.361333 253.638 
L 310.05 253.638 
L 310.05 252.522 
" clip-path="url(#p8e5a6d07bd)" style="fill: #4169e1"/>
    <path d="M 58.95 234.702 
L 64.261333 234.702 
L 63.703333 233.586 
L 69.283333 235.26 
L 63.703333 236.934 
L 64.261333 235.818 
L 58.95 235.818 
L 58.95 234.702 
" clip-path="url(#p8e5a6d07bd)" style="fill: #4169e1"/>
    <path d="M 76.885714 234.702 
L 82.197048 234.702 
L 81.639048 233.586 
L 87.219048 235.26 
L 81.639048 236.934 
L 82.197048 235.818 
L 76.885714 235.818 
L 76.885714 234.702 
" clip-path="url(#p8e5a6d07bd)" style="fill: #4169e1"/>
    <path d="M 94.821429 234.702 
L 100.132762 234.702 
L 99.574762 233.586 
L 105.154762 235.26 
L 99.574762 236.934 
L 100.132762 235.818 
L 94.821429 235.818 
L 94.821429 234.702 
" clip-path="url(#p8e5a6d07bd)" style="fill: #4169e1"/>
    <path d="M 112.757143 234.702 
L 118.068476 234.702 
L 117.510476 233.586 
L 123.090476 235.26 
L 117.510476 236.934 
L 118.068476 235.818 
L 112.757143 235.818 
L 112.757143 234.702 
" clip-path="url(#p8e5a6d07bd)" style="fill: #4169e1"/>
    <path d="M 130.692857 234.702 
L 136.00419 234.702 
L 135.44619 233.586 
L 141.02619 235.26 
L 135.44619 236.934 
L 136.00419 235.818 
L 130.692857 235.818 
L 130.692857 234.702 
" clip-path="url(#p8e5a6d07bd)" style="fill: #4169e1"/>
    <path d="M 148.628571 234.702 
L 153.939905 234.702 
L 153.381905 233.586 
L 158.961905 235.26 
L 153.381905 236.934 
L 153.939905 235.818 
L 148.628571 235.818 
L 148.628571 234.702 
" clip-path="url(#p8e5a6d07bd)" style="fill: #4169e1"/>
    <path d="M 166.564286 234.702 
L 171.875619 234.702 
L 171.317619 233.586 
L 176.897619 235.26 
L 171.317619 236.934 
L 171.875619 235.818 
L 166.564286 235.818 
L 166.564286 234.702 
" clip-path="url(#p8e5a6d07bd)" style="fill: #4169e1"/>
    <path d="M 184.5 234.702 
L 189.811333 234.702 
L 189.253333 233.586 
L 194.833333 235.26 
L 189.253333 236.934 
L 189.811333 235.818 
L 184.5 235.818 
L 184.5 234.702 
" clip-path="url(#p8e5a6d07bd)" style="fill: #4169e1"/>
    <path d="M 202.435714 234.702 
L 207.747048 234.702 
L 207.189048 233.586 
L 212.769048 235.26 
L 207.189048 236.934 
L 207.747048 235.818 
L 202.435714 235.818 
L 202.435714 234.702 
" clip-path="url(#p8e5a6d07bd)" style="fill: #4169e1"/>
    <path d="M 220.371429 234.702 
L 225.682762 234.702 
L 225.124762 233.586 
L 230.704762 235.26 
L 225.124762 236.934 
L 225.682762 235.818 
L 220.371429 235.818 
L 220.371429 234.702 
" clip-path="url(#p8e5a6d07bd)" style="fill: #4169e1"/>
    <path d="M 238.307143 234.702 
L 243.618476 234.702 
L 243.060476 233.586 
L 248.640476 235.26 
L 243.060476 236.934 
L 243.618476 235.818 
L 238.307143 235.818 
L 238.307143 234.702 
" clip-path="url(#p8e5a6d07bd)" style="fill: #4169e1"/>
    <path d="M 256.242857 234.702 
L 261.55419 234.702 
L 260.99619 233.586 
L 266.57619 235.26 
L 260.99619 236.934 
L 261.55419 235.818 
L 256.242857 235.818 
L 256.242857 234.702 
" clip-path="url(#p8e5a6d07bd)" style="fill: #4169e1"/>
    <path d="M 274.178571 234.702 
L 279.489905 234.702 
L 278.931905 233.586 
L 284.511905 235.26 
L 278.931905 236.934 
L 279.489905 235.818 
L 274.178571 235.818 
L 274.178571 234.702 
" clip-path="url(#p8e5a6d07bd)" style="fill: #4169e1"/>
    <path d="M 292.114286 234.702 
L 297.425619 234.702 
L 296.867619 233.586 
L 302.447619 235.26 
L 296.867619 236.934 
L 297.425619 235.818 
L 292.114286 235.818 
L 292.114286 234.702 
" clip-path="url(#p8e5a6d07bd)" style="fill: #4169e1"/>
    <path d="M 310.05 234.702 
L 315.361333 234.702 
L 314.803333 233.586 
L 320.383333 235.26 
L 314.803333 236.934 
L 315.361333 235.818 
L 310.05 235.818 
L 310.05 234.702 
" clip-path="url(#p8e5a6d07bd)" style="fill: #4169e1"/>
    <path d="M 58.95 216.882 
L 64.261333 216.882 
L 63.703333 215.766 
L 69.283333 217.44 
L 63.703333 219.114 
L 64.261333 217.998 
L 58.95 217.998 
L 58.95 216.882 
" clip-path="url(#p8e5a6d07bd)" style="fill: #4169e1"/>
    <path d="M 76.885714 216.882 
L 82.197048 216.882 
L 81.639048 215.766 
L 87.219048 217.44 
L 81.639048 219.114 
L 82.197048 217.998 
L 76.885714 217.998 
L 76.885714 216.882 
" clip-path="url(#p8e5a6d07bd)" style="fill: #4169e1"/>
    <path d="M 94.821429 216.882 
L 100.132762 216.882 
L 99.574762 215.766 
L 105.154762 217.44 
L 99.574762 219.114 
L 100.132762 217.998 
L 94.821429 217.998 
L 94.821429 216.882 
" clip-path="url(#p8e5a6d07bd)" style="fill: #4169e1"/>
    <path d="M 112.757143 216.882 
L 118.068476 216.882 
L 117.510476 215.766 
L 123.090476 217.44 
L 117.510476 219.114 
L 118.068476 217.998 
L 112.757143 217.998 
L 112.757143 216.882 
" clip-path="url(#p8e5a6d07bd)" style="fill: #4169e1"/>
    <path d="M 130.692857 216.882 
L 136.00419 216.882 
L 135.44619 215.766 
L 141.02619 217.44 
L 135.44619 219.114 
L 136.00419 217.998 
L 130.692857 217.998 
L 130.692857 216.882 
" clip-path="url(#p8e5a6d07bd)" style="fill: #4169e1"/>
    <path d="M 148.628571 216.882 
L 153.939905 216.882 
L 153.381905 215.766 
L 158.961905 217.44 
L 153.381905 219.114 
L 153.939905 217.998 
L 148.628571 217.998 
L 148.628571 216.882 
" clip-path="url(#p8e5a6d07bd)" style="fill: #4169e1"/>
    <path d="M 166.564286 216.882 
L 171.875619 216.882 
L 171.317619 215.766 
L 176.897619 217.44 
L 171.317619 219.114 
L 171.875619 217.998 
L 166.564286 217.998 
L 166.564286 216.882 
" clip-path="url(#p8e5a6d07bd)" style="fill: #4169e1"/>
    <path d="M 184.5 216.882 
L 189.811333 216.882 
L 189.253333 215.766 
L 194.833333 217.44 
L 189.253333 219.114 
L 189.811333 217.998 
L 184.5 217.998 
L 184.5 216.882 
" clip-path="url(#p8e5a6d07bd)" style="fill: #4169e1"/>
    <path d="M 202.435714 216.882 
L 207.747048 216.882 
L 207.189048 215.766 
L 212.769048 217.44 
L 207.189048 219.114 
L 207.747048 217.998 
L 202.435714 217.998 
L 202.435714 216.882 
" clip-path="url(#p8e5a6d07bd)" style="fill: #4169e1"/>
    <path d="M 220.371429 216.882 
L 225.682762 216.882 
L 225.124762 215.766 
L 230.704762 217.44 
L 225.124762 219.114 
L 225.682762 217.998 
L 220.371429 217.998 
L 220.371429 216.882 
" clip-path="url(#p8e5a6d07bd)" style="fill: #4169e1"/>
    <path d="M 238.307143 216.882 
L 243.618476 216.882 
L 243.060476 215.766 
L 248.640476 217.44 
L 243.060476 219.114 
L 243.618476 217.998 
L 238.307143 217.998 
L 238.307143 216.882 
" clip-path="url(#p8e5a6d07bd)" style="fill: #4169e1"/>
    <path d="M 256.242857 216.882 
L 261.55419 216.882 
L 260.99619 215.766 
L 266.57619 217.44 
L 260.99619 219.114 
L 261.55419 217.998 
L 256.242857 217.998 
L 256.242857 216.882 
" clip-path="url(#p8e5a6d07bd)" style="fill: #4169e1"/>
    <path d="M 274.178571 216.882 
L 279.489905 216.882 
L 278.931905 215.766 
L 284.511905 217.44 
L 278.931905 219.114 
L 279.489905 217.998 
L 274.178571 217.998 
L 274.178571 216.882 
" clip-path="url(#p8e5a6d07bd)" style="fill: #4169e1"/>
    <path d="M 292.114286 216.882 
L 297.425619 216.882 
L 296.867619 215.766 
L 302.447619 217.44 
L 296.867619 219.114 
L 297.425619 217.998 
L 292.114286 217.998 
L 292.114286 216.882 
" clip-path="url(#p8e5a6d07bd)" style="fill: #4169e1"/>
    <path d="M 310.05 216.882 
L 315.361333 216.882 
L 314.803333 215.766 
L 320.383333 217.44 
L 314.803333 219.114 
L 315.361333 217.998 
L 310.05 217.998 
L 310.05 216.882 
" clip-path="url(#p8e5a6d07bd)" style="fill: #4169e1"/>
    <path d="M 58.95 199.062 
L 64.261333 199.062 
L 63.703333 197.946 
L 69.283333 199.62 
L 63.703333 201.294 
L 64.261333 200.178 
L 58.95 200.178 
L 58.95 199.062 
" clip-path="url(#p8e5a6d07bd)" style="fill: #4169e1"/>
    <path d="M 76.885714 199.062 
L 82.197048 199.062 
L 81.639048 197.946 
L 87.219048 199.62 
L 81.639048 201.294 
L 82.197048 200.178 
L 76.885714 200.178 
L 76.885714 199.062 
" clip-path="url(#p8e5a6d07bd)" style="fill: #4169e1"/>
    <path d="M 94.821429 199.062 
L 100.132762 199.062 
L 99.574762 197.946 
L 105.154762 199.62 
L 99.574762 201.294 
L 100.132762 200.178 
L 94.821429 200.178 
L 94.821429 199.062 
" clip-path="url(#p8e5a6d07bd)" style="fill: #4169e1"/>
    <path d="M 112.757143 199.062 
L 118.068476 199.062 
L 117.510476 197.946 
L 123.090476 199.62 
L 117.510476 201.294 
L 118.068476 200.178 
L 112.757143 200.178 
L 112.757143 199.062 
" clip-path="url(#p8e5a6d07bd)" style="fill: #4169e1"/>
    <path d="M 130.692857 199.062 
L 136.00419 199.062 
L 135.44619 197.946 
L 141.02619 199.62 
L 135.44619 201.294 
L 136.00419 200.178 
L 130.692857 200.178 
L 130.692857 199.062 
" clip-path="url(#p8e5a6d07bd)" style="fill: #4169e1"/>
    <path d="M 148.628571 199.062 
L 153.939905 199.062 
L 153.381905 197.946 
L 158.961905 199.62 
L 153.381905 201.294 
L 153.939905 200.178 
L 148.628571 200.178 
L 148.628571 199.062 
" clip-path="url(#p8e5a6d07bd)" style="fill: #4169e1"/>
    <path d="M 166.564286 199.062 
L 171.875619 199.062 
L 171.317619 197.946 
L 176.897619 199.62 
L 171.317619 201.294 
L 171.875619 200.178 
L 166.564286 200.178 
L 166.564286 199.062 
" clip-path="url(#p8e5a6d07bd)" style="fill: #4169e1"/>
    <path d="M 184.5 199.062 
L 189.811333 199.062 
L 189.253333 197.946 
L 194.833333 199.62 
L 189.253333 201.294 
L 189.811333 200.178 
L 184.5 200.178 
L 184.5 199.062 
" clip-path="url(#p8e5a6d07bd)" style="fill: #4169e1"/>
    <path d="M 202.435714 199.062 
L 207.747048 199.062 
L 207.189048 197.946 
L 212.769048 199.62 
L 207.189048 201.294 
L 207.747048 200.178 
L 202.435714 200.178 
L 202.435714 199.062 
" clip-path="url(#p8e5a6d07bd)" style="fill: #4169e1"/>
    <path d="M 220.371429 199.062 
L 225.682762 199.062 
L 225.124762 197.946 
L 230.704762 199.62 
L 225.124762 201.294 
L 225.682762 200.178 
L 220.371429 200.178 
L 220.371429 199.062 
" clip-path="url(#p8e5a6d07bd)" style="fill: #4169e1"/>
    <path d="M 238.307143 199.062 
L 243.618476 199.062 
L 243.060476 197.946 
L 248.640476 199.62 
L 243.060476 201.294 
L 243.618476 200.178 
L 238.307143 200.178 
L 238.307143 199.062 
" clip-path="url(#p8e5a6d07bd)" style="fill: #4169e1"/>
    <path d="M 256.242857 199.062 
L 261.55419 199.062 
L 260.99619 197.946 
L 266.57619 199.62 
L 260.99619 201.294 
L 261.55419 200.178 
L 256.242857 200.178 
L 256.242857 199.062 
" clip-path="url(#p8e5a6d07bd)" style="fill: #4169e1"/>
    <path d="M 274.178571 199.062 
L 279.489905 199.062 
L 278.931905 197.946 
L 284.511905 199.62 
L 278.931905 201.294 
L 279.489905 200.178 
L 274.178571 200.178 
L 274.178571 199.062 
" clip-path="url(#p8e5a6d07bd)" style="fill: #4169e1"/>
    <path d="M 292.114286 199.062 
L 297.425619 199.062 
L 296.867619 197.946 
L 302.447619 199.62 
L 296.867619 201.294 
L 297.425619 200.178 
L 292.114286 200.178 
L 292.114286 199.062 
" clip-path="url(#p8e5a6d07bd)" style="fill: #4169e1"/>
    <path d="M 310.05 199.062 
L 315.361333 199.062 
L 314.803333 197.946 
L 320.383333 199.62 
L 314.803333 201.294 
L 315.361333 200.178 
L 310.05 200.178 
L 310.05 199.062 
" clip-path="url(#p8e5a6d07bd)" style="fill: #4169e1"/>
    <path d="M 58.95 181.242 
L 64.261333 181.242 
L 63.703333 180.126 
L 69.283333 181.8 
L 63.703333 183.474 
L 64.261333 182.358 
L 58.95 182.358 
L 58.95 181.242 
" clip-path="url(#p8e5a6d07bd)" style="fill: #4169e1"/>
    <path d="M 76.885714 181.242 
L 82.197048 181.242 
L 81.639048 180.126 
L 87.219048 181.8 
L 81.639048 183.474 
L 82.197048 182.358 
L 76.885714 182.358 
L 76.885714 181.242 
" clip-path="url(#p8e5a6d07bd)" style="fill: #4169e1"/>
    <path d="M 94.821429 181.242 
L 100.132762 181.242 
L 99.574762 180.126 
L 105.154762 181.8 
L 99.574762 183.474 
L 100.132762 182.358 
L 94.821429 182.358 
L 94.821429 181.242 
" clip-path="url(#p8e5a6d07bd)" style="fill: #4169e1"/>
    <path d="M 112.757143 181.242 
L 118.068476 181.242 
L 117.510476 180.126 
L 123.090476 181.8 
L 117.510476 183.474 
L 118.068476 182.358 
L 112.757143 182.358 
L 112.757143 181.242 
" clip-path="url(#p8e5a6d07bd)" style="fill: #4169e1"/>
    <path d="M 130.692857 181.242 
L 136.00419 181.242 
L 135.44619 180.126 
L 141.02619 181.8 
L 135.44619 183.474 
L 136.00419 182.358 
L 130.692857 182.358 
L 130.692857 181.242 
" clip-path="url(#p8e5a6d07bd)" style="fill: #4169e1"/>
    <path d="M 148.628571 181.242 
L 153.939905 181.242 
L 153.381905 180.126 
L 158.961905 181.8 
L 153.381905 183.474 
L 153.939905 182.358 
L 148.628571 182.358 
L 148.628571 181.242 
" clip-path="url(#p8e5a6d07bd)" style="fill: #4169e1"/>
    <path d="M 166.564286 181.242 
L 171.875619 181.242 
L 171.317619 180.126 
L 176.897619 181.8 
L 171.317619 183.474 
L 171.875619 182.358 
L 166.564286 182.358 
L 166.564286 181.242 
" clip-path="url(#p8e5a6d07bd)" style="fill: #4169e1"/>
    <path d="M 184.5 181.242 
L 189.811333 181.242 
L 189.253333 180.126 
L 194.833333 181.8 
L 189.253333 183.474 
L 189.811333 182.358 
L 184.5 182.358 
L 184.5 181.242 
" clip-path="url(#p8e5a6d07bd)" style="fill: #4169e1"/>
    <path d="M 202.435714 181.242 
L 207.747048 181.242 
L 207.189048 180.126 
L 212.769048 181.8 
L 207.189048 183.474 
L 207.747048 182.358 
L 202.435714 182.358 
L 202.435714 181.242 
" clip-path="url(#p8e5a6d07bd)" style="fill: #4169e1"/>
    <path d="M 220.371429 181.242 
L 225.682762 181.242 
L 225.124762 180.126 
L 230.704762 181.8 
L 225.124762 183.474 
L 225.682762 182.358 
L 220.371429 182.358 
L 220.371429 181.242 
" clip-path="url(#p8e5a6d07bd)" style="fill: #4169e1"/>
    <path d="M 238.307143 181.242 
L 243.618476 181.242 
L 243.060476 180.126 
L 248.640476 181.8 
L 243.060476 183.474 
L 243.618476 182.358 
L 238.307143 182.358 
L 238.307143 181.242 
" clip-path="url(#p8e5a6d07bd)" style="fill: #4169e1"/>
    <path d="M 256.242857 181.242 
L 261.55419 181.242 
L 260.99619 180.126 
L 266.57619 181.8 
L 260.99619 183.474 
L 261.55419 182.358 
L 256.242857 182.358 
L 256.242857 181.242 
" clip-path="url(#p8e5a6d07bd)" style="fill: #4169e1"/>
    <path d="M 274.178571 181.242 
L 279.489905 181.242 
L 278.931905 180.126 
L 284.511905 181.8 
L 278.931905 183.474 
L 279.489905 182.358 
L 274.178571 182.358 
L 274.178571 181.242 
" clip-path="url(#p8e5a6d07bd)" style="fill: #4169e1"/>
    <path d="M 292.114286 181.242 
L 297.425619 181.242 
L 296.867619 180.126 
L 302.447619 181.8 
L 296.867619 183.474 
L 297.425619 182.358 
L 292.114286 182.358 
L 292.114286 181.242 
" clip-path="url(#p8e5a6d07bd)" style="fill: #4169e1"/>
    <path d="M 310.05 181.242 
L 315.361333 181.242 
L 314.803333 180.126 
L 320.383333 181.8 
L 314.803333 183.474 
L 315.361333 182.358 
L 310.05 182.358 
L 310.05 181.242 
" clip-path="url(#p8e5a6d07bd)" style="fill: #4169e1"/>
    <path d="M 58.95 163.422 
L 64.261333 163.422 
L 63.703333 162.306 
L 69.283333 163.98 
L 63.703333 165.654 
L 64.261333 164.538 
L 58.95 164.538 
L 58.95 163.422 
" clip-path="url(#p8e5a6d07bd)" style="fill: #4169e1"/>
    <path d="M 76.885714 163.422 
L 82.197048 163.422 
L 81.639048 162.306 
L 87.219048 163.98 
L 81.639048 165.654 
L 82.197048 164.538 
L 76.885714 164.538 
L 76.885714 163.422 
" clip-path="url(#p8e5a6d07bd)" style="fill: #4169e1"/>
    <path d="M 94.821429 163.422 
L 100.132762 163.422 
L 99.574762 162.306 
L 105.154762 163.98 
L 99.574762 165.654 
L 100.132762 164.538 
L 94.821429 164.538 
L 94.821429 163.422 
" clip-path="url(#p8e5a6d07bd)" style="fill: #4169e1"/>
    <path d="M 112.757143 163.422 
L 118.068476 163.422 
L 117.510476 162.306 
L 123.090476 163.98 
L 117.510476 165.654 
L 118.068476 164.538 
L 112.757143 164.538 
L 112.757143 163.422 
" clip-path="url(#p8e5a6d07bd)" style="fill: #4169e1"/>
    <path d="M 130.692857 163.422 
L 136.00419 163.422 
L 135.44619 162.306 
L 141.02619 163.98 
L 135.44619 165.654 
L 136.00419 164.538 
L 130.692857 164.538 
L 130.692857 163.422 
" clip-path="url(#p8e5a6d07bd)" style="fill: #4169e1"/>
    <path d="M 148.628571 163.422 
L 153.939905 163.422 
L 153.381905 162.306 
L 158.961905 163.98 
L 153.381905 165.654 
L 153.939905 164.538 
L 148.628571 164.538 
L 148.628571 163.422 
" clip-path="url(#p8e5a6d07bd)" style="fill: #4169e1"/>
    <path d="M 166.564286 163.422 
L 171.875619 163.422 
L 171.317619 162.306 
L 176.897619 163.98 
L 171.317619 165.654 
L 171.875619 164.538 
L 166.564286 164.538 
L 166.564286 163.422 
" clip-path="url(#p8e5a6d07bd)" style="fill: #4169e1"/>
    <path d="M 184.5 163.422 
L 189.811333 163.422 
L 189.253333 162.306 
L 194.833333 163.98 
L 189.253333 165.654 
L 189.811333 164.538 
L 184.5 164.538 
L 184.5 163.422 
" clip-path="url(#p8e5a6d07bd)" style="fill: #4169e1"/>
    <path d="M 202.435714 163.422 
L 207.747048 163.422 
L 207.189048 162.306 
L 212.769048 163.98 
L 207.189048 165.654 
L 207.747048 164.538 
L 202.435714 164.538 
L 202.435714 163.422 
" clip-path="url(#p8e5a6d07bd)" style="fill: #4169e1"/>
    <path d="M 220.371429 163.422 
L 225.682762 163.422 
L 225.124762 162.306 
L 230.704762 163.98 
L 225.124762 165.654 
L 225.682762 164.538 
L 220.371429 164.538 
L 220.371429 163.422 
" clip-path="url(#p8e5a6d07bd)" style="fill: #4169e1"/>
    <path d="M 238.307143 163.422 
L 243.618476 163.422 
L 243.060476 162.306 
L 248.640476 163.98 
L 243.060476 165.654 
L 243.618476 164.538 
L 238.307143 164.538 
L 238.307143 163.422 
" clip-path="url(#p8e5a6d07bd)" style="fill: #4169e1"/>
    <path d="M 256.242857 163.422 
L 261.55419 163.422 
L 260.99619 162.306 
L 266.57619 163.98 
L 260.99619 165.654 
L 261.55419 164.538 
L 256.242857 164.538 
L 256.242857 163.422 
" clip-path="url(#p8e5a6d07bd)" style="fill: #4169e1"/>
    <path d="M 274.178571 163.422 
L 279.489905 163.422 
L 278.931905 162.306 
L 284.511905 163.98 
L 278.931905 165.654 
L 279.489905 164.538 
L 274.178571 164.538 
L 274.178571 163.422 
" clip-path="url(#p8e5a6d07bd)" style="fill: #4169e1"/>
    <path d="M 292.114286 163.422 
L 297.425619 163.422 
L 296.867619 162.306 
L 302.447619 163.98 
L 296.867619 165.654 
L 297.425619 164.538 
L 292.114286 164.538 
L 292.114286 163.422 
" clip-path="url(#p8e5a6d07bd)" style="fill: #4169e1"/>
    <path d="M 310.05 163.422 
L 315.361333 163.422 
L 314.803333 162.306 
L 320.383333 163.98 
L 314.803333 165.654 
L 315.361333 164.538 
L 310.05 164.538 
L 310.05 163.422 
" clip-path="url(#p8e5a6d07bd)" style="fill: #4169e1"/>
    <path d="M 58.95 145.602 
L 64.261333 145.602 
L 63.703333 144.486 
L 69.283333 146.16 
L 63.703333 147.834 
L 64.261333 146.718 
L 58.95 146.718 
L 58.95 145.602 
" clip-path="url(#p8e5a6d07bd)" style="fill: #4169e1"/>
    <path d="M 76.885714 145.602 
L 82.197048 145.602 
L 81.639048 144.486 
L 87.219048 146.16 
L 81.639048 147.834 
L 82.197048 146.718 
L 76.885714 146.718 
L 76.885714 145.602 
" clip-path="url(#p8e5a6d07bd)" style="fill: #4169e1"/>
    <path d="M 94.821429 145.602 
L 100.132762 145.602 
L 99.574762 144.486 
L 105.154762 146.16 
L 99.574762 147.834 
L 100.132762 146.718 
L 94.821429 146.718 
L 94.821429 145.602 
" clip-path="url(#p8e5a6d07bd)" style="fill: #4169e1"/>
    <path d="M 112.757143 145.602 
L 118.068476 145.602 
L 117.510476 144.486 
L 123.090476 146.16 
L 117.510476 147.834 
L 118.068476 146.718 
L 112.757143 146.718 
L 112.757143 145.602 
" clip-path="url(#p8e5a6d07bd)" style="fill: #4169e1"/>
    <path d="M 130.692857 145.602 
L 136.00419 145.602 
L 135.44619 144.486 
L 141.02619 146.16 
L 135.44619 147.834 
L 136.00419 146.718 
L 130.692857 146.718 
L 130.692857 145.602 
" clip-path="url(#p8e5a6d07bd)" style="fill: #4169e1"/>
    <path d="M 148.628571 145.602 
L 153.939905 145.602 
L 153.381905 144.486 
L 158.961905 146.16 
L 153.381905 147.834 
L 153.939905 146.718 
L 148.628571 146.718 
L 148.628571 145.602 
" clip-path="url(#p8e5a6d07bd)" style="fill: #4169e1"/>
    <path d="M 166.564286 145.602 
L 171.875619 145.602 
L 171.317619 144.486 
L 176.897619 146.16 
L 171.317619 147.834 
L 171.875619 146.718 
L 166.564286 146.718 
L 166.564286 145.602 
" clip-path="url(#p8e5a6d07bd)" style="fill: #4169e1"/>
    <path d="M 184.5 145.602 
L 189.811333 145.602 
L 189.253333 144.486 
L 194.833333 146.16 
L 189.253333 147.834 
L 189.811333 146.718 
L 184.5 146.718 
L 184.5 145.602 
" clip-path="url(#p8e5a6d07bd)" style="fill: #4169e1"/>
    <path d="M 202.435714 145.602 
L 207.747048 145.602 
L 207.189048 144.486 
L 212.769048 146.16 
L 207.189048 147.834 
L 207.747048 146.718 
L 202.435714 146.718 
L 202.435714 145.602 
" clip-path="url(#p8e5a6d07bd)" style="fill: #4169e1"/>
    <path d="M 220.371429 145.602 
L 225.682762 145.602 
L 225.124762 144.486 
L 230.704762 146.16 
L 225.124762 147.834 
L 225.682762 146.718 
L 220.371429 146.718 
L 220.371429 145.602 
" clip-path="url(#p8e5a6d07bd)" style="fill: #4169e1"/>
    <path d="M 238.307143 145.602 
L 243.618476 145.602 
L 243.060476 144.486 
L 248.640476 146.16 
L 243.060476 147.834 
L 243.618476 146.718 
L 238.307143 146.718 
L 238.307143 145.602 
" clip-path="url(#p8e5a6d07bd)" style="fill: #4169e1"/>
    <path d="M 256.242857 145.602 
L 261.55419 145.602 
L 260.99619 144.486 
L 266.57619 146.16 
L 260.99619 147.834 
L 261.55419 146.718 
L 256.242857 146.718 
L 256.242857 145.602 
" clip-path="url(#p8e5a6d07bd)" style="fill: #4169e1"/>
    <path d="M 274.178571 145.602 
L 279.489905 145.602 
L 278.931905 144.486 
L 284.511905 146.16 
L 278.931905 147.834 
L 279.489905 146.718 
L 274.178571 146.718 
L 274.178571 145.602 
" clip-path="url(#p8e5a6d07bd)" style="fill: #4169e1"/>
    <path d="M 292.114286 145.602 
L 297.425619 145.602 
L 296.867619 144.486 
L 302.447619 146.16 
L 296.867619 147.834 
L 297.425619 146.718 
L 292.114286 146.718 
L 292.114286 145.602 
" clip-path="url(#p8e5a6d07bd)" style="fill: #4169e1"/>
    <path d="M 310.05 145.602 
L 315.361333 145.602 
L 314.803333 144.486 
L 320.383333 146.16 
L 314.803333 147.834 
L 315.361333 146.718 
L 310.05 146.718 
L 310.05 145.602 
" clip-path="url(#p8e5a6d07bd)" style="fill: #4169e1"/>
    <path d="M 58.95 127.782 
L 64.261333 127.782 
L 63.703333 126.666 
L 69.283333 128.34 
L 63.703333 130.014 
L 64.261333 128.898 
L 58.95 128.898 
L 58.95 127.782 
" clip-path="url(#p8e5a6d07bd)" style="fill: #4169e1"/>
    <path d="M 76.885714 127.782 
L 82.197048 127.782 
L 81.639048 126.666 
L 87.219048 128.34 
L 81.639048 130.014 
L 82.197048 128.898 
L 76.885714 128.898 
L 76.885714 127.782 
" clip-path="url(#p8e5a6d07bd)" style="fill: #4169e1"/>
    <path d="M 94.821429 127.782 
L 100.132762 127.782 
L 99.574762 126.666 
L 105.154762 128.34 
L 99.574762 130.014 
L 100.132762 128.898 
L 94.821429 128.898 
L 94.821429 127.782 
" clip-path="url(#p8e5a6d07bd)" style="fill: #4169e1"/>
    <path d="M 112.757143 127.782 
L 118.068476 127.782 
L 117.510476 126.666 
L 123.090476 128.34 
L 117.510476 130.014 
L 118.068476 128.898 
L 112.757143 128.898 
L 112.757143 127.782 
" clip-path="url(#p8e5a6d07bd)" style="fill: #4169e1"/>
    <path d="M 130.692857 127.782 
L 136.00419 127.782 
L 135.44619 126.666 
L 141.02619 128.34 
L 135.44619 130.014 
L 136.00419 128.898 
L 130.692857 128.898 
L 130.692857 127.782 
" clip-path="url(#p8e5a6d07bd)" style="fill: #4169e1"/>
    <path d="M 148.628571 127.782 
L 153.939905 127.782 
L 153.381905 126.666 
L 158.961905 128.34 
L 153.381905 130.014 
L 153.939905 128.898 
L 148.628571 128.898 
L 148.628571 127.782 
" clip-path="url(#p8e5a6d07bd)" style="fill: #4169e1"/>
    <path d="M 166.564286 127.782 
L 171.875619 127.782 
L 171.317619 126.666 
L 176.897619 128.34 
L 171.317619 130.014 
L 171.875619 128.898 
L 166.564286 128.898 
L 166.564286 127.782 
" clip-path="url(#p8e5a6d07bd)" style="fill: #4169e1"/>
    <path d="M 184.5 127.782 
L 189.811333 127.782 
L 189.253333 126.666 
L 194.833333 128.34 
L 189.253333 130.014 
L 189.811333 128.898 
L 184.5 128.898 
L 184.5 127.782 
" clip-path="url(#p8e5a6d07bd)" style="fill: #4169e1"/>
    <path d="M 202.435714 127.782 
L 207.747048 127.782 
L 207.189048 126.666 
L 212.769048 128.34 
L 207.189048 130.014 
L 207.747048 128.898 
L 202.435714 128.898 
L 202.435714 127.782 
" clip-path="url(#p8e5a6d07bd)" style="fill: #4169e1"/>
    <path d="M 220.371429 127.782 
L 225.682762 127.782 
L 225.124762 126.666 
L 230.704762 128.34 
L 225.124762 130.014 
L 225.682762 128.898 
L 220.371429 128.898 
L 220.371429 127.782 
" clip-path="url(#p8e5a6d07bd)" style="fill: #4169e1"/>
    <path d="M 238.307143 127.782 
L 243.618476 127.782 
L 243.060476 126.666 
L 248.640476 128.34 
L 243.060476 130.014 
L 243.618476 128.898 
L 238.307143 128.898 
L 238.307143 127.782 
" clip-path="url(#p8e5a6d07bd)" style="fill: #4169e1"/>
    <path d="M 256.242857 127.782 
L 261.55419 127.782 
L 260.99619 126.666 
L 266.57619 128.34 
L 260.99619 130.014 
L 261.55419 128.898 
L 256.242857 128.898 
L 256.242857 127.782 
" clip-path="url(#p8e5a6d07bd)" style="fill: #4169e1"/>
    <path d="M 274.178571 127.782 
L 279.489905 127.782 
L 278.931905 126.666 
L 284.511905 128.34 
L 278.931905 130.014 
L 279.489905 128.898 
L 274.178571 128.898 
L 274.178571 127.782 
" clip-path="url(#p8e5a6d07bd)" style="fill: #4169e1"/>
    <path d="M 292.114286 127.782 
L 297.425619 127.782 
L 296.867619 126.666 
L 302.447619 128.34 
L 296.867619 130.014 
L 297.425619 128.898 
L 292.114286 128.898 
L 292.114286 127.782 
" clip-path="url(#p8e5a6d07bd)" style="fill: #4169e1"/>
    <path d="M 310.05 127.782 
L 315.361333 127.782 
L 314.803333 126.666 
L 320.383333 128.34 
L 314.803333 130.014 
L 315.361333 128.898 
L 310.05 128.898 
L 310.05 127.782 
" clip-path="url(#p8e5a6d07bd)" style="fill: #4169e1"/>
    <path d="M 58.95 109.962 
L 64.261333 109.962 
L 63.703333 108.846 
L 69.283333 110.52 
L 63.703333 112.194 
L 64.261333 111.078 
L 58.95 111.078 
L 58.95 109.962 
" clip-path="url(#p8e5a6d07bd)" style="fill: #4169e1"/>
    <path d="M 76.885714 109.962 
L 82.197048 109.962 
L 81.639048 108.846 
L 87.219048 110.52 
L 81.639048 112.194 
L 82.197048 111.078 
L 76.885714 111.078 
L 76.885714 109.962 
" clip-path="url(#p8e5a6d07bd)" style="fill: #4169e1"/>
    <path d="M 94.821429 109.962 
L 100.132762 109.962 
L 99.574762 108.846 
L 105.154762 110.52 
L 99.574762 112.194 
L 100.132762 111.078 
L 94.821429 111.078 
L 94.821429 109.962 
" clip-path="url(#p8e5a6d07bd)" style="fill: #4169e1"/>
    <path d="M 112.757143 109.962 
L 118.068476 109.962 
L 117.510476 108.846 
L 123.090476 110.52 
L 117.510476 112.194 
L 118.068476 111.078 
L 112.757143 111.078 
L 112.757143 109.962 
" clip-path="url(#p8e5a6d07bd)" style="fill: #4169e1"/>
    <path d="M 130.692857 109.962 
L 136.00419 109.962 
L 135.44619 108.846 
L 141.02619 110.52 
L 135.44619 112.194 
L 136.00419 111.078 
L 130.692857 111.078 
L 130.692857 109.962 
" clip-path="url(#p8e5a6d07bd)" style="fill: #4169e1"/>
    <path d="M 148.628571 109.962 
L 153.939905 109.962 
L 153.381905 108.846 
L 158.961905 110.52 
L 153.381905 112.194 
L 153.939905 111.078 
L 148.628571 111.078 
L 148.628571 109.962 
" clip-path="url(#p8e5a6d07bd)" style="fill: #4169e1"/>
    <path d="M 166.564286 109.962 
L 171.875619 109.962 
L 171.317619 108.846 
L 176.897619 110.52 
L 171.317619 112.194 
L 171.875619 111.078 
L 166.564286 111.078 
L 166.564286 109.962 
" clip-path="url(#p8e5a6d07bd)" style="fill: #4169e1"/>
    <path d="M 184.5 109.962 
L 189.811333 109.962 
L 189.253333 108.846 
L 194.833333 110.52 
L 189.253333 112.194 
L 189.811333 111.078 
L 184.5 111.078 
L 184.5 109.962 
" clip-path="url(#p8e5a6d07bd)" style="fill: #4169e1"/>
    <path d="M 202.435714 109.962 
L 207.747048 109.962 
L 207.189048 108.846 
L 212.769048 110.52 
L 207.189048 112.194 
L 207.747048 111.078 
L 202.435714 111.078 
L 202.435714 109.962 
" clip-path="url(#p8e5a6d07bd)" style="fill: #4169e1"/>
    <path d="M 220.371429 109.962 
L 225.682762 109.962 
L 225.124762 108.846 
L 230.704762 110.52 
L 225.124762 112.194 
L 225.682762 111.078 
L 220.371429 111.078 
L 220.371429 109.962 
" clip-path="url(#p8e5a6d07bd)" style="fill: #4169e1"/>
    <path d="M 238.307143 109.962 
L 243.618476 109.962 
L 243.060476 108.846 
L 248.640476 110.52 
L 243.060476 112.194 
L 243.618476 111.078 
L 238.307143 111.078 
L 238.307143 109.962 
" clip-path="url(#p8e5a6d07bd)" style="fill: #4169e1"/>
    <path d="M 256.242857 109.962 
L 261.55419 109.962 
L 260.99619 108.846 
L 266.57619 110.52 
L 260.99619 112.194 
L 261.55419 111.078 
L 256.242857 111.078 
L 256.242857 109.962 
" clip-path="url(#p8e5a6d07bd)" style="fill: #4169e1"/>
    <path d="M 274.178571 109.962 
L 279.489905 109.962 
L 278.931905 108.846 
L 284.511905 110.52 
L 278.931905 112.194 
L 279.489905 111.078 
L 274.178571 111.078 
L 274.178571 109.962 
" clip-path="url(#p8e5a6d07bd)" style="fill: #4169e1"/>
    <path d="M 292.114286 109.962 
L 297.425619 109.962 
L 296.867619 108.846 
L 302.447619 110.52 
L 296.867619 112.194 
L 297.425619 111.078 
L 292.114286 111.078 
L 292.114286 109.962 
" clip-path="url(#p8e5a6d07bd)" style="fill: #4169e1"/>
    <path d="M 310.05 109.962 
L 315.361333 109.962 
L 314.803333 108.846 
L 320.383333 110.52 
L 314.803333 112.194 
L 315.361333 111.078 
L 310.05 111.078 
L 310.05 109.962 
" clip-path="url(#p8e5a6d07bd)" style="fill: #4169e1"/>
    <path d="M 58.95 92.142 
L 64.261333 92.142 
L 63.703333 91.026 
L 69.283333 92.7 
L 63.703333 94.374 
L 64.261333 93.258 
L 58.95 93.258 
L 58.95 92.142 
" clip-path="url(#p8e5a6d07bd)" style="fill: #4169e1"/>
    <path d="M 76.885714 92.142 
L 82.197048 92.142 
L 81.639048 91.026 
L 87.219048 92.7 
L 81.639048 94.374 
L 82.197048 93.258 
L 76.885714 93.258 
L 76.885714 92.142 
" clip-path="url(#p8e5a6d07bd)" style="fill: #4169e1"/>
    <path d="M 94.821429 92.142 
L 100.132762 92.142 
L 99.574762 91.026 
L 105.154762 92.7 
L 99.574762 94.374 
L 100.132762 93.258 
L 94.821429 93.258 
L 94.821429 92.142 
" clip-path="url(#p8e5a6d07bd)" style="fill: #4169e1"/>
    <path d="M 112.757143 92.142 
L 118.068476 92.142 
L 117.510476 91.026 
L 123.090476 92.7 
L 117.510476 94.374 
L 118.068476 93.258 
L 112.757143 93.258 
L 112.757143 92.142 
" clip-path="url(#p8e5a6d07bd)" style="fill: #4169e1"/>
    <path d="M 130.692857 92.142 
L 136.00419 92.142 
L 135.44619 91.026 
L 141.02619 92.7 
L 135.44619 94.374 
L 136.00419 93.258 
L 130.692857 93.258 
L 130.692857 92.142 
" clip-path="url(#p8e5a6d07bd)" style="fill: #4169e1"/>
    <path d="M 148.628571 92.142 
L 153.939905 92.142 
L 153.381905 91.026 
L 158.961905 92.7 
L 153.381905 94.374 
L 153.939905 93.258 
L 148.628571 93.258 
L 148.628571 92.142 
" clip-path="url(#p8e5a6d07bd)" style="fill: #4169e1"/>
    <path d="M 166.564286 92.142 
L 171.875619 92.142 
L 171.317619 91.026 
L 176.897619 92.7 
L 171.317619 94.374 
L 171.875619 93.258 
L 166.564286 93.258 
L 166.564286 92.142 
" clip-path="url(#p8e5a6d07bd)" style="fill: #4169e1"/>
    <path d="M 184.5 92.142 
L 189.811333 92.142 
L 189.253333 91.026 
L 194.833333 92.7 
L 189.253333 94.374 
L 189.811333 93.258 
L 184.5 93.258 
L 184.5 92.142 
" clip-path="url(#p8e5a6d07bd)" style="fill: #4169e1"/>
    <path d="M 202.435714 92.142 
L 207.747048 92.142 
L 207.189048 91.026 
L 212.769048 92.7 
L 207.189048 94.374 
L 207.747048 93.258 
L 202.435714 93.258 
L 202.435714 92.142 
" clip-path="url(#p8e5a6d07bd)" style="fill: #4169e1"/>
    <path d="M 220.371429 92.142 
L 225.682762 92.142 
L 225.124762 91.026 
L 230.704762 92.7 
L 225.124762 94.374 
L 225.682762 93.258 
L 220.371429 93.258 
L 220.371429 92.142 
" clip-path="url(#p8e5a6d07bd)" style="fill: #4169e1"/>
    <path d="M 238.307143 92.142 
L 243.618476 92.142 
L 243.060476 91.026 
L 248.640476 92.7 
L 243.060476 94.374 
L 243.618476 93.258 
L 238.307143 93.258 
L 238.307143 92.142 
" clip-path="url(#p8e5a6d07bd)" style="fill: #4169e1"/>
    <path d="M 256.242857 92.142 
L 261.55419 92.142 
L 260.99619 91.026 
L 266.57619 92.7 
L 260.99619 94.374 
L 261.55419 93.258 
L 256.242857 93.258 
L 256.242857 92.142 
" clip-path="url(#p8e5a6d07bd)" style="fill: #4169e1"/>
    <path d="M 274.178571 92.142 
L 279.489905 92.142 
L 278.931905 91.026 
L 284.511905 92.7 
L 278.931905 94.374 
L 279.489905 93.258 
L 274.178571 93.258 
L 274.178571 92.142 
" clip-path="url(#p8e5a6d07bd)" style="fill: #4169e1"/>
    <path d="M 292.114286 92.142 
L 297.425619 92.142 
L 296.867619 91.026 
L 302.447619 92.7 
L 296.867619 94.374 
L 297.425619 93.258 
L 292.114286 93.258 
L 292.114286 92.142 
" clip-path="url(#p8e5a6d07bd)" style="fill: #4169e1"/>
    <path d="M 310.05 92.142 
L 315.361333 92.142 
L 314.803333 91.026 
L 320.383333 92.7 
L 314.803333 94.374 
L 315.361333 93.258 
L 310.05 93.258 
L 310.05 92.142 
" clip-path="url(#p8e5a6d07bd)" style="fill: #4169e1"/>
    <path d="M 58.95 74.322 
L 64.261333 74.322 
L 63.703333 73.206 
L 69.283333 74.88 
L 63.703333 76.554 
L 64.261333 75.438 
L 58.95 75.438 
L 58.95 74.322 
" clip-path="url(#p8e5a6d07bd)" style="fill: #4169e1"/>
    <path d="M 76.885714 74.322 
L 82.197048 74.322 
L 81.639048 73.206 
L 87.219048 74.88 
L 81.639048 76.554 
L 82.197048 75.438 
L 76.885714 75.438 
L 76.885714 74.322 
" clip-path="url(#p8e5a6d07bd)" style="fill: #4169e1"/>
    <path d="M 94.821429 74.322 
L 100.132762 74.322 
L 99.574762 73.206 
L 105.154762 74.88 
L 99.574762 76.554 
L 100.132762 75.438 
L 94.821429 75.438 
L 94.821429 74.322 
" clip-path="url(#p8e5a6d07bd)" style="fill: #4169e1"/>
    <path d="M 112.757143 74.322 
L 118.068476 74.322 
L 117.510476 73.206 
L 123.090476 74.88 
L 117.510476 76.554 
L 118.068476 75.438 
L 112.757143 75.438 
L 112.757143 74.322 
" clip-path="url(#p8e5a6d07bd)" style="fill: #4169e1"/>
    <path d="M 130.692857 74.322 
L 136.00419 74.322 
L 135.44619 73.206 
L 141.02619 74.88 
L 135.44619 76.554 
L 136.00419 75.438 
L 130.692857 75.438 
L 130.692857 74.322 
" clip-path="url(#p8e5a6d07bd)" style="fill: #4169e1"/>
    <path d="M 148.628571 74.322 
L 153.939905 74.322 
L 153.381905 73.206 
L 158.961905 74.88 
L 153.381905 76.554 
L 153.939905 75.438 
L 148.628571 75.438 
L 148.628571 74.322 
" clip-path="url(#p8e5a6d07bd)" style="fill: #4169e1"/>
    <path d="M 166.564286 74.322 
L 171.875619 74.322 
L 171.317619 73.206 
L 176.897619 74.88 
L 171.317619 76.554 
L 171.875619 75.438 
L 166.564286 75.438 
L 166.564286 74.322 
" clip-path="url(#p8e5a6d07bd)" style="fill: #4169e1"/>
    <path d="M 184.5 74.322 
L 189.811333 74.322 
L 189.253333 73.206 
L 194.833333 74.88 
L 189.253333 76.554 
L 189.811333 75.438 
L 184.5 75.438 
L 184.5 74.322 
" clip-path="url(#p8e5a6d07bd)" style="fill: #4169e1"/>
    <path d="M 202.435714 74.322 
L 207.747048 74.322 
L 207.189048 73.206 
L 212.769048 74.88 
L 207.189048 76.554 
L 207.747048 75.438 
L 202.435714 75.438 
L 202.435714 74.322 
" clip-path="url(#p8e5a6d07bd)" style="fill: #4169e1"/>
    <path d="M 220.371429 74.322 
L 225.682762 74.322 
L 225.124762 73.206 
L 230.704762 74.88 
L 225.124762 76.554 
L 225.682762 75.438 
L 220.371429 75.438 
L 220.371429 74.322 
" clip-path="url(#p8e5a6d07bd)" style="fill: #4169e1"/>
    <path d="M 238.307143 74.322 
L 243.618476 74.322 
L 243.060476 73.206 
L 248.640476 74.88 
L 243.060476 76.554 
L 243.618476 75.438 
L 238.307143 75.438 
L 238.307143 74.322 
" clip-path="url(#p8e5a6d07bd)" style="fill: #4169e1"/>
    <path d="M 256.242857 74.322 
L 261.55419 74.322 
L 260.99619 73.206 
L 266.57619 74.88 
L 260.99619 76.554 
L 261.55419 75.438 
L 256.242857 75.438 
L 256.242857 74.322 
" clip-path="url(#p8e5a6d07bd)" style="fill: #4169e1"/>
    <path d="M 274.178571 74.322 
L 279.489905 74.322 
L 278.931905 73.206 
L 284.511905 74.88 
L 278.931905 76.554 
L 279.489905 75.438 
L 274.178571 75.438 
L 274.178571 74.322 
" clip-path="url(#p8e5a6d07bd)" style="fill: #4169e1"/>
    <path d="M 292.114286 74.322 
L 297.425619 74.322 
L 296.867619 73.206 
L 302.447619 74.88 
L 296.867619 76.554 
L 297.425619 75.438 
L 292.114286 75.438 
L 292.114286 74.322 
" clip-path="url(#p8e5a6d07bd)" style="fill: #4169e1"/>
    <path d="M 310.05 74.322 
L 315.361333 74.322 
L 314.803333 73.206 
L 320.383333 74.88 
L 314.803333 76.554 
L 315.361333 75.438 
L 310.05 75.438 
L 310.05 74.322 
" clip-path="url(#p8e5a6d07bd)" style="fill: #4169e1"/>
    <path d="M 58.95 56.502 
L 64.261333 56.502 
L 63.703333 55.386 
L 69.283333 57.06 
L 63.703333 58.734 
L 64.261333 57.618 
L 58.95 57.618 
L 58.95 56.502 
" clip-path="url(#p8e5a6d07bd)" style="fill: #4169e1"/>
    <path d="M 76.885714 56.502 
L 82.197048 56.502 
L 81.639048 55.386 
L 87.219048 57.06 
L 81.639048 58.734 
L 82.197048 57.618 
L 76.885714 57.618 
L 76.885714 56.502 
" clip-path="url(#p8e5a6d07bd)" style="fill: #4169e1"/>
    <path d="M 94.821429 56.502 
L 100.132762 56.502 
L 99.574762 55.386 
L 105.154762 57.06 
L 99.574762 58.734 
L 100.132762 57.618 
L 94.821429 57.618 
L 94.821429 56.502 
" clip-path="url(#p8e5a6d07bd)" style="fill: #4169e1"/>
    <path d="M 112.757143 56.502 
L 118.068476 56.502 
L 117.510476 55.386 
L 123.090476 57.06 
L 117.510476 58.734 
L 118.068476 57.618 
L 112.757143 57.618 
L 112.757143 56.502 
" clip-path="url(#p8e5a6d07bd)" style="fill: #4169e1"/>
    <path d="M 130.692857 56.502 
L 136.00419 56.502 
L 135.44619 55.386 
L 141.02619 57.06 
L 135.44619 58.734 
L 136.00419 57.618 
L 130.692857 57.618 
L 130.692857 56.502 
" clip-path="url(#p8e5a6d07bd)" style="fill: #4169e1"/>
    <path d="M 148.628571 56.502 
L 153.939905 56.502 
L 153.381905 55.386 
L 158.961905 57.06 
L 153.381905 58.734 
L 153.939905 57.618 
L 148.628571 57.618 
L 148.628571 56.502 
" clip-path="url(#p8e5a6d07bd)" style="fill: #4169e1"/>
    <path d="M 166.564286 56.502 
L 171.875619 56.502 
L 171.317619 55.386 
L 176.897619 57.06 
L 171.317619 58.734 
L 171.875619 57.618 
L 166.564286 57.618 
L 166.564286 56.502 
" clip-path="url(#p8e5a6d07bd)" style="fill: #4169e1"/>
    <path d="M 184.5 56.502 
L 189.811333 56.502 
L 189.253333 55.386 
L 194.833333 57.06 
L 189.253333 58.734 
L 189.811333 57.618 
L 184.5 57.618 
L 184.5 56.502 
" clip-path="url(#p8e5a6d07bd)" style="fill: #4169e1"/>
    <path d="M 202.435714 56.502 
L 207.747048 56.502 
L 207.189048 55.386 
L 212.769048 57.06 
L 207.189048 58.734 
L 207.747048 57.618 
L 202.435714 57.618 
L 202.435714 56.502 
" clip-path="url(#p8e5a6d07bd)" style="fill: #4169e1"/>
    <path d="M 220.371429 56.502 
L 225.682762 56.502 
L 225.124762 55.386 
L 230.704762 57.06 
L 225.124762 58.734 
L 225.682762 57.618 
L 220.371429 57.618 
L 220.371429 56.502 
" clip-path="url(#p8e5a6d07bd)" style="fill: #4169e1"/>
    <path d="M 238.307143 56.502 
L 243.618476 56.502 
L 243.060476 55.386 
L 248.640476 57.06 
L 243.060476 58.734 
L 243.618476 57.618 
L 238.307143 57.618 
L 238.307143 56.502 
" clip-path="url(#p8e5a6d07bd)" style="fill: #4169e1"/>
    <path d="M 256.242857 56.502 
L 261.55419 56.502 
L 260.99619 55.386 
L 266.57619 57.06 
L 260.99619 58.734 
L 261.55419 57.618 
L 256.242857 57.618 
L 256.242857 56.502 
" clip-path="url(#p8e5a6d07bd)" style="fill: #4169e1"/>
    <path d="M 274.178571 56.502 
L 279.489905 56.502 
L 278.931905 55.386 
L 284.511905 57.06 
L 278.931905 58.734 
L 279.489905 57.618 
L 274.178571 57.618 
L 274.178571 56.502 
" clip-path="url(#p8e5a6d07bd)" style="fill: #4169e1"/>
    <path d="M 292.114286 56.502 
L 297.425619 56.502 
L 296.867619 55.386 
L 302.447619 57.06 
L 296.867619 58.734 
L 297.425619 57.618 
L 292.114286 57.618 
L 292.114286 56.502 
" clip-path="url(#p8e5a6d07bd)" style="fill: #4169e1"/>
    <path d="M 310.05 56.502 
L 315.361333 56.502 
L 314.803333 55.386 
L 320.383333 57.06 
L 314.803333 58.734 
L 315.361333 57.618 
L 310.05 57.618 
L 310.05 56.502 
" clip-path="url(#p8e5a6d07bd)" style="fill: #4169e1"/>
   </g>
   <g id="matplotlib.axis_1">
    <g id="xtick_1">
     <g id="line2d_1">
      <defs>
       <path id="m9a5970299b" d="M 0 0 
L 0 3.5 
" style="stroke: #000000; stroke-width: 0.8"/>
      </defs>
      <g>
       <use xlink:href="#m9a5970299b" x="45" y="320.4" style="stroke: #000000; stroke-width: 0.8"/>
      </g>
     </g>
     <g id="text_1">
      <!-- $\mathdefault{10}$ -->
      <g transform="translate(33.622576 336.394028) scale(0.13 -0.13)">
       <defs>
        <path id="CMSY10-0" d="M 4218 1472 
C 4326 1472 4442 1472 4442 1600 
C 4442 1728 4326 1728 4218 1728 
L 755 1728 
C 646 1728 531 1728 531 1600 
C 531 1472 646 1472 755 1472 
L 4218 1472 
z
" transform="scale(0.015625)"/>
        <path id="CMR17-31" d="M 1702 4058 
C 1702 4192 1696 4192 1606 4192 
C 1357 3916 979 3827 621 3827 
C 602 3827 570 3827 563 3808 
C 557 3795 557 3782 557 3648 
C 755 3648 1088 3686 1344 3839 
L 1344 461 
C 1344 236 1331 160 781 160 
L 589 160 
L 589 0 
C 896 0 1216 0 1523 0 
C 1830 0 2150 0 2458 0 
L 2458 160 
L 2266 160 
C 1715 160 1702 230 1702 458 
L 1702 4058 
z
" transform="scale(0.015625)"/>
        <path id="CMR17-30" d="M 2688 2025 
C 2688 2416 2682 3080 2413 3591 
C 2176 4039 1798 4198 1466 4198 
C 1158 4198 768 4058 525 3597 
C 269 3118 243 2524 243 2025 
C 243 1661 250 1106 448 619 
C 723 -39 1216 -128 1466 -128 
C 1760 -128 2208 -7 2470 600 
C 2662 1042 2688 1559 2688 2025 
z
M 1466 -26 
C 1056 -26 813 325 723 812 
C 653 1188 653 1738 653 2096 
C 653 2588 653 2997 736 3387 
C 858 3929 1216 4096 1466 4096 
C 1728 4096 2067 3923 2189 3400 
C 2272 3036 2278 2607 2278 2096 
C 2278 1680 2278 1169 2202 792 
C 2067 95 1690 -26 1466 -26 
z
" transform="scale(0.015625)"/>
       </defs>
       <use xlink:href="#CMSY10-0" transform="scale(0.996264)"/>
       <use xlink:href="#CMR17-31" transform="translate(77.487468 0) scale(0.996264)"/>
       <use xlink:href="#CMR17-30" transform="translate(123.177945 0) scale(0.996264)"/>
      </g>
     </g>
    </g>
    <g id="xtick_2">
     <g id="line2d_2">
      <g>
       <use xlink:href="#m9a5970299b" x="114.75" y="320.4" style="stroke: #000000; stroke-width: 0.8"/>
      </g>
     </g>
     <g id="text_2">
      <!-- $\mathdefault{5}$ -->
      <g transform="translate(106.542945 336.394028) scale(0.13 -0.13)">
       <defs>
        <path id="CMR17-35" d="M 730 3692 
C 794 3666 1056 3584 1325 3584 
C 1920 3584 2246 3911 2432 4100 
C 2432 4157 2432 4192 2394 4192 
C 2387 4192 2374 4192 2323 4163 
C 2099 4058 1837 3973 1517 3973 
C 1325 3973 1037 3999 723 4139 
C 653 4171 640 4171 634 4171 
C 602 4171 595 4164 595 4037 
L 595 2203 
C 595 2089 595 2057 659 2057 
C 691 2057 704 2070 736 2114 
C 941 2401 1222 2522 1542 2522 
C 1766 2522 2246 2382 2246 1289 
C 2246 1085 2246 715 2054 421 
C 1894 159 1645 25 1370 25 
C 947 25 518 320 403 814 
C 429 807 480 795 506 795 
C 589 795 749 840 749 1038 
C 749 1210 627 1280 506 1280 
C 358 1280 262 1190 262 1011 
C 262 454 704 -128 1382 -128 
C 2042 -128 2669 440 2669 1264 
C 2669 2030 2170 2624 1549 2624 
C 1222 2624 947 2503 730 2274 
L 730 3692 
z
" transform="scale(0.015625)"/>
       </defs>
       <use xlink:href="#CMSY10-0" transform="scale(0.996264)"/>
       <use xlink:href="#CMR17-35" transform="translate(77.487468 0) scale(0.996264)"/>
      </g>
     </g>
    </g>
    <g id="xtick_3">
     <g id="line2d_3">
      <g>
       <use xlink:href="#m9a5970299b" x="184.5" y="320.4" style="stroke: #000000; stroke-width: 0.8"/>
      </g>
     </g>
     <g id="text_3">
      <!-- $\mathdefault{0}$ -->
      <g transform="translate(181.32963 336.394028) scale(0.13 -0.13)">
       <use xlink:href="#CMR17-30" transform="scale(0.996264)"/>
      </g>
     </g>
    </g>
    <g id="xtick_4">
     <g id="line2d_4">
      <g>
       <use xlink:href="#m9a5970299b" x="254.25" y="320.4" style="stroke: #000000; stroke-width: 0.8"/>
      </g>
     </g>
     <g id="text_4">
      <!-- $\mathdefault{5}$ -->
      <g transform="translate(251.07963 336.394028) scale(0.13 -0.13)">
       <use xlink:href="#CMR17-35" transform="scale(0.996264)"/>
      </g>
     </g>
    </g>
    <g id="xtick_5">
     <g id="line2d_5">
      <g>
       <use xlink:href="#m9a5970299b" x="324" y="320.4" style="stroke: #000000; stroke-width: 0.8"/>
      </g>
     </g>
     <g id="text_5">
      <!-- $\mathdefault{10}$ -->
      <g transform="translate(317.659261 336.394028) scale(0.13 -0.13)">
       <use xlink:href="#CMR17-31" transform="scale(0.996264)"/>
       <use xlink:href="#CMR17-30" transform="translate(45.690477 0) scale(0.996264)"/>
      </g>
     </g>
    </g>
    <g id="text_6">
     <!-- $x$ -->
     <g transform="translate(180.89679 351.906368) scale(0.13 -0.13)">
      <defs>
       <path id="CMMI12-78" d="M 3034 2606 
C 2829 2567 2752 2414 2752 2293 
C 2752 2139 2874 2088 2963 2088 
C 3155 2088 3290 2254 3290 2427 
C 3290 2695 2982 2816 2714 2816 
C 2323 2816 2106 2433 2048 2312 
C 1901 2816 1504 2816 1389 2816 
C 736 2816 390 1980 390 1839 
C 390 1814 416 1782 461 1782 
C 512 1782 525 1820 538 1846 
C 755 2555 1184 2689 1370 2689 
C 1658 2689 1715 2420 1715 2267 
C 1715 2127 1677 1980 1600 1673 
L 1382 798 
C 1286 415 1101 64 762 64 
C 730 64 570 64 435 147 
C 666 192 717 383 717 460 
C 717 588 621 664 499 664 
C 346 664 179 530 179 326 
C 179 57 480 -64 755 -64 
C 1062 -64 1280 179 1414 441 
C 1517 64 1837 -64 2074 -64 
C 2726 -64 3072 773 3072 913 
C 3072 945 3046 971 3008 971 
C 2950 971 2944 939 2925 888 
C 2752 326 2381 64 2093 64 
C 1869 64 1747 230 1747 492 
C 1747 632 1773 734 1875 1156 
L 2099 2024 
C 2195 2408 2413 2689 2707 2689 
C 2720 2689 2899 2689 3034 2606 
z
" transform="scale(0.015625)"/>
      </defs>
      <use xlink:href="#CMMI12-78" transform="scale(0.996264)"/>
     </g>
    </g>
   </g>
   <g id="matplotlib.axis_2">
    <g id="ytick_1">
     <g id="line2d_6">
      <defs>
       <path id="me1feebb738" d="M 0 0 
L -3.5 0 
" style="stroke: #000000; stroke-width: 0.8"/>
      </defs>
      <g>
       <use xlink:href="#me1feebb738" x="45" y="320.4" style="stroke: #000000; stroke-width: 0.8"/>
      </g>
     </g>
     <g id="text_7">
      <!-- $\mathdefault{10}$ -->
      <g transform="translate(15.245151 324.897014) scale(0.13 -0.13)">
       <use xlink:href="#CMSY10-0" transform="scale(0.996264)"/>
       <use xlink:href="#CMR17-31" transform="translate(77.487468 0) scale(0.996264)"/>
       <use xlink:href="#CMR17-30" transform="translate(123.177945 0) scale(0.996264)"/>
      </g>
     </g>
    </g>
    <g id="ytick_2">
     <g id="line2d_7">
      <g>
       <use xlink:href="#me1feebb738" x="45" y="251.1" style="stroke: #000000; stroke-width: 0.8"/>
      </g>
     </g>
     <g id="text_8">
      <!-- $\mathdefault{5}$ -->
      <g transform="translate(21.585891 255.597014) scale(0.13 -0.13)">
       <use xlink:href="#CMSY10-0" transform="scale(0.996264)"/>
       <use xlink:href="#CMR17-35" transform="translate(77.487468 0) scale(0.996264)"/>
      </g>
     </g>
    </g>
    <g id="ytick_3">
     <g id="line2d_8">
      <g>
       <use xlink:href="#me1feebb738" x="45" y="181.8" style="stroke: #000000; stroke-width: 0.8"/>
      </g>
     </g>
     <g id="text_9">
      <!-- $\mathdefault{0}$ -->
      <g transform="translate(31.659261 186.297014) scale(0.13 -0.13)">
       <use xlink:href="#CMR17-30" transform="scale(0.996264)"/>
      </g>
     </g>
    </g>
    <g id="ytick_4">
     <g id="line2d_9">
      <g>
       <use xlink:href="#me1feebb738" x="45" y="112.5" style="stroke: #000000; stroke-width: 0.8"/>
      </g>
     </g>
     <g id="text_10">
      <!-- $\mathdefault{5}$ -->
      <g transform="translate(31.659261 116.997014) scale(0.13 -0.13)">
       <use xlink:href="#CMR17-35" transform="scale(0.996264)"/>
      </g>
     </g>
    </g>
    <g id="ytick_5">
     <g id="line2d_10">
      <g>
       <use xlink:href="#me1feebb738" x="45" y="43.2" style="stroke: #000000; stroke-width: 0.8"/>
      </g>
     </g>
     <g id="text_11">
      <!-- $\mathdefault{10}$ -->
      <g transform="translate(25.318521 47.697014) scale(0.13 -0.13)">
       <use xlink:href="#CMR17-31" transform="scale(0.996264)"/>
       <use xlink:href="#CMR17-30" transform="translate(45.690477 0) scale(0.996264)"/>
      </g>
     </g>
    </g>
    <g id="text_12">
     <!-- $y$ -->
     <g transform="translate(8.726839 184.89167) rotate(-90) scale(0.13 -0.13)">
      <defs>
       <path id="CMMI12-79" d="M 1683 -700 
C 1510 -939 1261 -1152 947 -1152 
C 870 -1152 563 -1152 467 -889 
C 486 -895 518 -895 531 -895 
C 723 -895 851 -729 851 -582 
C 851 -435 730 -384 634 -384 
C 531 -384 307 -458 307 -759 
C 307 -1071 582 -1286 947 -1286 
C 1587 -1286 2234 -700 2413 6 
L 3040 2485 
C 3046 2517 3059 2556 3059 2594 
C 3059 2689 2982 2753 2886 2753 
C 2829 2753 2694 2727 2643 2535 
L 2170 658 
C 2138 543 2138 530 2086 460 
C 1958 281 1747 64 1440 64 
C 1082 64 1050 415 1050 588 
C 1050 952 1222 1443 1395 1903 
C 1466 2088 1504 2178 1504 2305 
C 1504 2574 1312 2816 998 2816 
C 410 2816 173 1890 173 1839 
C 173 1814 198 1782 243 1782 
C 301 1782 307 1807 333 1897 
C 486 2433 730 2689 979 2689 
C 1037 2689 1146 2689 1146 2478 
C 1146 2312 1075 2127 979 1884 
C 666 1047 666 837 666 683 
C 666 77 1101 -64 1421 -64 
C 1606 -64 1837 -6 2061 230 
L 2067 224 
C 1971 -147 1907 -392 1683 -700 
z
" transform="scale(0.015625)"/>
      </defs>
      <use xlink:href="#CMMI12-79" transform="scale(0.996264)"/>
     </g>
    </g>
   </g>
   <g id="patch_3">
    <path d="M 45 320.4 
L 45 43.2 
" style="fill: none; stroke: #000000; stroke-width: 0.8; stroke-linejoin: miter; stroke-linecap: square"/>
   </g>
   <g id="patch_4">
    <path d="M 324 320.4 
L 324 43.2 
" style="fill: none; stroke: #000000; stroke-width: 0.8; stroke-linejoin: miter; stroke-linecap: square"/>
   </g>
   <g id="patch_5">
    <path d="M 45 320.4 
L 324 320.4 
" style="fill: none; stroke: #000000; stroke-width: 0.8; stroke-linejoin: miter; stroke-linecap: square"/>
   </g>
   <g id="patch_6">
    <path d="M 45 43.2 
L 324 43.2 
" style="fill: none; stroke: #000000; stroke-width: 0.8; stroke-linejoin: miter; stroke-linecap: square"/>
   </g>
  </g>
 </g>
 <defs>
  <clipPath id="p8e5a6d07bd">
   <rect x="45" y="43.2" width="279" height="277.2"/>
  </clipPath>
 </defs>
</svg>
